<svg xmlns="http://www.w3.org/2000/svg" xmlns:xlink="http://www.w3.org/1999/xlink" version="1.1" id="Layer_1" x="0px" y="0px" width="142.3px" height="25px" viewBox="0 0 142.3 25" enable-background="new 0 0 142.3 25" xml:space="preserve" role="img" aria-labelledby="a9b26wzuhbly89kck2xncrqz0e4dgvw4" class="fill-current"><title id="a9b26wzuhbly89kck2xncrqz0e4dgvw4">Logo</title>
<g>
	<path fill="#FFFFFF" d="M48.7,22c-0.7,0-0.9-0.3-0.9-0.9V4.1c0-0.6,0.3-0.9,0.9-0.9h4c0.6,0,0.9,0.3,0.9,0.9v5.6H58V4.1   c0-0.6,0.3-0.9,0.9-0.9h4c0.7,0,0.9,0.3,0.9,0.9V21c0,0.7-0.3,0.9-0.9,0.9h-4C58.3,22,58,21.7,58,21v-5.8h-4.4V21   c0,0.7-0.3,0.9-0.9,0.9L48.7,22z"></path>
	<path fill="#FFFFFF" d="M72,22h-3.8c-0.6,0-0.9-0.3-0.9-0.9v-6.9c0.1-1.4,0.4-2.9,1-4.2L70.5,4c0.2-0.6,0.7-0.9,1.3-0.9h7   C79.4,3.1,80,3.4,80.2,4l2.3,5.9c0.6,1.3,0.9,2.7,1,4.2V21c0,0.7-0.3,0.9-0.9,0.9h-4c-0.7,0-1-0.3-1-0.9v-3.7h-4.6V21   C72.9,21.7,72.6,22,72,22z M73.2,12.6h4.1l-1.2-4c-0.1-0.3-0.3-0.4-0.5-0.4h-0.6c-0.2,0-0.4,0.1-0.5,0.4L73.2,12.6z"></path>
	<path fill="#FFFFFF" d="M87.6,22c-0.7,0-0.9-0.3-0.9-0.9V4.1c0-0.6,0.3-0.9,0.9-0.9h4.2c0.5,0,1,0.3,1.2,0.8l2.3,4.3   c0.2,0.3,0.3,0.4,0.5,0.4H96c0.2,0,0.3-0.1,0.5-0.4L98.8,4c0.2-0.5,0.7-0.8,1.2-0.8h4.2c0.6,0,0.9,0.3,0.9,0.9v16.9   c0,0.6-0.3,0.9-0.9,0.9h-4c-0.7,0-0.9-0.3-0.9-0.9v-9.2l-1.5,2.9c-0.2,0.5-0.8,0.9-1.4,0.8h-1c-0.6,0.1-1.2-0.3-1.4-0.8l-1.5-2.9   V21c0,0.7-0.3,0.9-0.9,0.9L87.6,22z"></path>
	<path fill="#FFFFFF" d="M109.8,22c-0.6,0-0.9-0.3-0.9-0.9V4.1c0-0.7,0.3-0.9,0.9-0.9h8.7c3.9,0,5.1,1.8,5.1,4.4v1.2   c0,1.5-0.4,2.5-1.5,3c1.9,0.2,3.2,1.6,3.2,3.8v5.6c0,0.6-0.3,0.9-0.9,0.9h-4.1c-0.7,0-0.9-0.3-0.9-0.9v-4c0-0.8-0.3-1.1-1-1.1h-3.7   v5.1c0,0.6-0.3,0.9-0.9,0.9L109.8,22z M114.7,11.2h2c0.9,0,1.1-0.5,1.1-1.2V9.1c0-0.7-0.2-1.2-1.1-1.2h-2L114.7,11.2z"></path>
	<path fill="#FFFFFF" d="M128.7,22c-0.7,0-0.9-0.3-0.9-0.9V18c0-0.6,0.3-0.9,0.9-0.9h7c0.4,0,0.7-0.3,0.7-0.7c0,0,0-0.1,0-0.1   c0-0.6-0.2-0.8-0.7-0.9l-3.9-0.6c-2.5-0.4-4-1.4-4-4.3V7.8c0-3,2-4.6,5.4-4.6h7.3c0.7,0,0.9,0.3,0.9,0.9v3.1c0,0.6-0.3,0.9-0.9,0.9   h-6.1c-0.4,0-0.7,0.3-0.7,0.7c0,0,0,0,0,0c0,0,0,0.1,0,0.1c0,0.4,0.3,0.8,0.7,0.8h0l3.9,0.5c2.5,0.4,4.1,1.4,4.1,4.3v2.7   c0,3-2,4.6-5.4,4.6L128.7,22z"></path>
	<path fill="#FFFFFF" d="M1.2,8.4C0.5,8.4,0,8.9,0,9.5v5.8c0,0.6,0.5,1.2,1.1,1.2c0.6,0,1.2-0.5,1.2-1.1c0,0,0-0.1,0-0.1V9.5   C2.3,8.9,1.8,8.4,1.2,8.4z"></path>
	<path fill="#FFFFFF" d="M5.9,5.6c-0.6,0-1.2,0.5-1.2,1.1v11.4c0,0.6,0.5,1.2,1.1,1.2c0.6,0,1.2-0.5,1.2-1.1c0,0,0-0.1,0-0.1V6.7   C7.1,6.1,6.5,5.6,5.9,5.6z"></path>
	<path fill="#FFFFFF" d="M10.7,0C10,0,9.5,0.5,9.5,1.1v22.6c-0.1,0.6,0.4,1.2,1.1,1.3c0.6,0.1,1.2-0.4,1.3-1.1c0,0,0,0,0-0.1   c0,0,0-0.1,0-0.1V1.1C11.8,0.5,11.3,0,10.7,0z"></path>
	<path fill="#FFFFFF" d="M15.4,3.7c-0.6,0-1.2,0.5-1.2,1.2V20c0,0.6,0.6,1.1,1.2,1.1c0.6,0,1.1-0.5,1.1-1.1V4.9   C16.5,4.2,16,3.7,15.4,3.7z"></path>
	<path fill="#FFFFFF" d="M20.1,7.4C19.5,7.4,19,8,19,8.6v7.7c0,0.6,0.5,1.2,1.1,1.2c0.6,0,1.2-0.5,1.2-1.1c0,0,0-0.1,0-0.1V8.6   C21.3,8,20.8,7.5,20.1,7.4C20.2,7.5,20.1,7.5,20.1,7.4L20.1,7.4z"></path>
	<path fill="#FFFFFF" d="M39.1,7.4c-0.6,0-1.2,0.5-1.2,1.2v7.7c0,0.6,0.6,1.1,1.2,1.1c0.6,0,1.1-0.5,1.1-1.1l0,0V8.6   C40.3,8,39.7,7.5,39.1,7.4C39.1,7.5,39.1,7.5,39.1,7.4L39.1,7.4z"></path>
	<path fill="#FFFFFF" d="M24.8,0c-0.6,0-1.1,0.5-1.1,1.2v22.6c0,0.6,0.5,1.2,1.1,1.2c0.6,0,1.2-0.5,1.2-1.1c0,0,0-0.1,0-0.1V1.2   C26,0.5,25.5,0,24.8,0C24.9,0,24.9,0,24.8,0z"></path>
	<path fill="#FFFFFF" d="M34.3,3.7c-0.6,0-1.2,0.5-1.2,1.2V20c0,0.6,0.4,1.2,1.1,1.2c0.6,0,1.2-0.4,1.2-1.1l0,0c0,0,0-0.1,0-0.1V4.9   C35.5,4.2,35,3.7,34.3,3.7z"></path>
	<path fill="#FFFFFF" d="M29.6,5.6c-0.6,0-1.2,0.5-1.2,1.1v11.4c0,0.6,0.5,1.2,1.1,1.2c0.6,0,1.2-0.5,1.2-1.1c0,0,0-0.1,0-0.1V6.7   C30.8,6.1,30.2,5.6,29.6,5.6z"></path>
</g>
</svg>